<svg fill="#000000" viewBox="-2.24 -2.24 36.48 36.48" id="icon" xmlns="http://www.w3.org/2000/svg" stroke="#000000" stroke-width="0.32"><g id="SVGRepo_bgCarrier" stroke-width="0" transform="translate(0,0), scale(1)"><rect x="-2.24" y="-2.24" width="36.48" height="36.48" rx="5.4719999999999995" fill="#ffffff" strokewidth="0"></rect></g><g id="SVGRepo_tracerCarrier" stroke-linecap="round" stroke-linejoin="round"></g><g id="SVGRepo_iconCarrier"> <defs> <style> .cls-1 { fill: none; } </style> </defs> <polygon points="22 23 13.83 23 16.41 20.41 15 19 10 24 15 29 16.41 27.59 13.83 25 22 25 22 23"></polygon> <polygon points="11 13 19.17 13 16.59 10.41 18 9 23 14 18 19 16.59 17.59 19.17 15 11 15 11 13"></polygon> <path d="M24.5,25H24V23h.5a5.4961,5.4961,0,0,0,.377-10.9795l-.8365-.0566-.09-.834a7.9979,7.9979,0,0,0-15.9014,0l-.09.834-.8365.0566A5.4961,5.4961,0,0,0,7.5,23H8v2H7.5A7.4964,7.4964,0,0,1,6.1782,10.124a9.9992,9.9992,0,0,1,19.6436,0A7.4964,7.4964,0,0,1,24.5,25Z" transform="translate(0 0)"></path>  </g></svg>